<?xml version="1.0" encoding="UTF-8" standalone="no"?>
<svg
   xmlns:dc="http://purl.org/dc/elements/1.1/"
   xmlns:cc="http://creativecommons.org/ns#"
   xmlns:rdf="http://www.w3.org/1999/02/22-rdf-syntax-ns#"
   xmlns:svg="http://www.w3.org/2000/svg"
   xmlns="http://www.w3.org/2000/svg"
   xmlns:sodipodi="http://sodipodi.sourceforge.net/DTD/sodipodi-0.dtd"
   xmlns:inkscape="http://www.inkscape.org/namespaces/inkscape"
   width="500"
   height="500"
   viewBox="0 0 132.29166 132.29167"
   version="1.1"
   id="svg8"
   inkscape:version="1.0.2-2 (e86c870879, 2021-01-15)"
   sodipodi:docname="logo.svg">
  <defs
     id="defs2" />
  <sodipodi:namedview
     id="base"
     pagecolor="#000000"
     bordercolor="#666666"
     borderopacity="1.0"
     inkscape:pageopacity="0"
     inkscape:pageshadow="2"
     inkscape:zoom="0.52095062"
     inkscape:cx="938.35925"
     inkscape:cy="437.43576"
     inkscape:document-units="mm"
     inkscape:current-layer="layer1"
     inkscape:document-rotation="0"
     showgrid="true"
     units="px"
     inkscape:pagecheckerboard="true"
     inkscape:showpageshadow="false"
     inkscape:window-width="1920"
     inkscape:window-height="1017"
     inkscape:window-x="-8"
     inkscape:window-y="-8"
     inkscape:window-maximized="1">
    <inkscape:grid
       type="xygrid"
       id="grid833" />
  </sodipodi:namedview>
  <metadata
     id="metadata5">
    <rdf:RDF>
      <cc:Work
         rdf:about="">
        <dc:format>image/svg+xml</dc:format>
        <dc:type
           rdf:resource="http://purl.org/dc/dcmitype/StillImage" />
        <dc:title></dc:title>
      </cc:Work>
    </rdf:RDF>
  </metadata>
  <g
     inkscape:label="Layer 1"
     inkscape:groupmode="layer"
     id="layer1">
    <path
       id="rect835"
       style="fill:#facb00;fill-opacity:0.951807;stroke-width:4.40001;stroke-dasharray:4.40001, 4.40001"
       d="M 40 40 L 40 460 L 87.283203 460 L 87.283203 128.4668 L 234.02734 128.4668 C 254.07939 128.4668 271.32056 129.60612 285.75195 131.88477 C 300.18335 134.16341 313.70402 139.09984 326.3125 146.69531 C 339.07289 154.29078 349.17558 164.1656 356.61914 176.31836 C 364.21461 188.31921 368.01172 203.43298 368.01172 221.66211 C 368.01172 246.72717 362.16382 267.1604 350.4668 282.95898 C 338.92168 298.75757 322.36216 311.89715 300.79102 322.37891 L 369.38086 410.42578 A 189.12517 209.81995 0 0 0 436.33789 250.25781 A 189.12517 209.81995 0 0 0 260 40.917969 L 260 40 L 40 40 z M 174.32812 190.90039 L 174.32812 282.27539 L 201.21484 282.27539 C 215.19051 282.27539 226.88825 281.59179 236.30664 280.22461 C 245.72503 278.85742 253.62371 275.74196 260.00391 270.88086 C 266.08028 266.17167 270.48633 261.00737 273.2207 255.38672 C 276.10698 249.61416 277.54883 241.94334 277.54883 232.37305 C 277.54883 223.86612 275.80251 216.57442 272.30859 210.49805 C 268.81468 204.42167 262.81552 199.6365 254.30859 196.14258 C 248.38413 193.71203 241.47156 192.26823 233.57227 191.8125 C 225.67297 191.20486 216.48175 190.90039 206 190.90039 L 174.32812 190.90039 z M 174.32812 343.3418 L 174.32812 460 L 242.11719 460 A 189.12517 209.81995 0 0 0 247.21289 460.07812 A 189.12517 209.81995 0 0 0 252.31445 460 L 260 460 L 260 459.59766 A 189.12517 209.81995 0 0 0 296.14844 452.93164 L 214.66016 343.3418 L 174.32812 343.3418 z "
       transform="scale(0.26458333)" />
  </g>
</svg>
